# xmcd
#
# Track frame offsets: 
#        150
#        19382
#        39935
#        57997
#        109167
#        121477
#        141772
#        157210
#        200027
#
# Disc length: 3009 seconds
#
# Revision: 0
# Processed by: cddbd v1.5.2PL0 Copyright (c) Steve Scherf et al.
# Submitted via: ExactAudioCopy v1.0b3
#
DISCID=840bbf09
DTITLE=Various Artist - Ao Anh 5 Nut Cham Rong
DYEAR=1995
DGENRE=
TTITLE0=Ngoc Anh, Dao Duc - Ao anh 5 nut cham rong
TTITLE1=Dao Duc - LK Con ca
TTITLE2=Phuong Thao, To Thanh Phuong - Hanh trinh Ly ngua o
TTITLE3=Bich Phuong, Bao Quoc - Lam bieng
TTITLE4=Bich Phuong, Phuong Thao - Qua rung
TTITLE5=Phuong Thao - Duoi chim
TTITLE6=Phuong Thao, To Thanh Phuong, Bich Phuong - Tuy cuc
TTITLE7=Dao Duc, Bich Phuong - Thi tai noi doc
TTITLE8=Bich Phuong - Thuong lang xom
EXTD=
EXTT0=
EXTT1=
EXTT2=
EXTT3=
EXTT4=
EXTT5=
EXTT6=
EXTT7=
EXTT8=
PLAYORDER=
